<svg viewBox="0 0 64 64" xmlns="http://www.w3.org/2000/svg">
  <defs>
    <radialGradient id="bodyGradient" cx="0.3" cy="0.3" r="0.8">
      <stop offset="0%" style="stop-color:#ffffff;stop-opacity:1" />
      <stop offset="50%" style="stop-color:#f8f8f8;stop-opacity:1" />
      <stop offset="100%" style="stop-color:#e8e8e8;stop-opacity:1" />
    </radialGradient>
    <radialGradient id="headGradient" cx="0.3" cy="0.3" r="0.8">
      <stop offset="0%" style="stop-color:#ffffff;stop-opacity:1" />
      <stop offset="70%" style="stop-color:#f5f5f5;stop-opacity:1" />
      <stop offset="100%" style="stop-color:#eeeeee;stop-opacity:1" />
    </radialGradient>
    <radialGradient id="combGradient" cx="0.3" cy="0.3" r="0.8">
      <stop offset="0%" style="stop-color:#ff5722;stop-opacity:1" />
      <stop offset="100%" style="stop-color:#d32f2f;stop-opacity:1" />
    </radialGradient>
    <radialGradient id="wattleGradient" cx="0.3" cy="0.3" r="0.8">
      <stop offset="0%" style="stop-color:#ff5722;stop-opacity:1" />
      <stop offset="100%" style="stop-color:#d32f2f;stop-opacity:1" />
    </radialGradient>
    <radialGradient id="shadow" cx="0.5" cy="0.9" r="0.6">
      <stop offset="0%" style="stop-color:#cccccc;stop-opacity:0.3" />
      <stop offset="100%" style="stop-color:#cccccc;stop-opacity:0" />
    </radialGradient>
  </defs>
  
  <!-- 影 -->
  <ellipse cx="32" cy="60" rx="20" ry="5" fill="url(#shadow)" />
  
  <!-- 体 -->
  <ellipse cx="32" cy="42" rx="18" ry="20" fill="url(#bodyGradient)" stroke="#e0e0e0" stroke-width="0.5"/>
  
  <!-- 首 -->
  <ellipse cx="32" cy="26" rx="7" ry="10" fill="url(#headGradient)" stroke="#e0e0e0" stroke-width="0.5"/>
  
  <!-- 頭 -->
  <circle cx="32" cy="18" r="8" fill="url(#headGradient)" stroke="#e0e0e0" stroke-width="0.5"/>
  
  <!-- トサカ（発達した） -->
  <path d="M26 10 Q28 6 30 10 Q32 4 34 10 Q36 6 38 10" fill="url(#combGradient)" stroke="#b71c1c" stroke-width="0.5"/>
  
  <!-- 肉垂（あご下の赤い部分） -->
  <ellipse cx="32" cy="24" rx="3" ry="4" fill="url(#wattleGradient)" stroke="#b71c1c" stroke-width="0.3"/>
  
  <!-- くちばし -->
  <polygon points="32,20 26,24 38,24" fill="#ff9800" stroke="#f57c00" stroke-width="0.5"/>
  
  <!-- 目 -->
  <circle cx="27" cy="16" r="2" fill="#1a1a1a"/>
  <circle cx="37" cy="16" r="2" fill="#1a1a1a"/>
  <circle cx="27.3" cy="15.3" r="0.6" fill="#ffffff"/>
  <circle cx="37.3" cy="15.3" r="0.6" fill="#ffffff"/>
  
  <!-- 翼（大きく発達） -->
  <ellipse cx="16" cy="38" rx="9" ry="16" fill="#f5f5f5" stroke="#e0e0e0" stroke-width="0.5"/>
  <ellipse cx="48" cy="38" rx="9" ry="16" fill="#f5f5f5" stroke="#e0e0e0" stroke-width="0.5"/>
  
  <!-- 翼の羽根パターン -->
  <ellipse cx="16" cy="32" rx="4" ry="8" fill="#eeeeee"/>
  <ellipse cx="48" cy="32" rx="4" ry="8" fill="#eeeeee"/>
  <ellipse cx="16" cy="42" rx="4" ry="7" fill="#eeeeee"/>
  <ellipse cx="48" cy="42" rx="4" ry="7" fill="#eeeeee"/>
  
  <!-- 尻尾の羽根（大きく） -->
  <ellipse cx="32" cy="56" rx="12" ry="8" fill="#f5f5f5" stroke="#e0e0e0" stroke-width="0.5"/>
  <ellipse cx="28" cy="58" rx="4" ry="5" fill="#eeeeee"/>
  <ellipse cx="36" cy="58" rx="4" ry="5" fill="#eeeeee"/>
  <ellipse cx="32" cy="60" rx="3" ry="4" fill="#eeeeee"/>
  
  <!-- 足（太くしっかり） -->
  <ellipse cx="25" cy="58" rx="4" ry="3" fill="#ff9800"/>
  <ellipse cx="39" cy="58" rx="4" ry="3" fill="#ff9800"/>
  
  <!-- 爪 -->
  <ellipse cx="21" cy="59.5" rx="1.2" ry="2" fill="#f57c00"/>
  <ellipse cx="25" cy="60" rx="1.2" ry="2" fill="#f57c00"/>
  <ellipse cx="29" cy="59.5" rx="1.2" ry="2" fill="#f57c00"/>
  <ellipse cx="35" cy="59.5" rx="1.2" ry="2" fill="#f57c00"/>
  <ellipse cx="39" cy="60" rx="1.2" ry="2" fill="#f57c00"/>
  <ellipse cx="43" cy="59.5" rx="1.2" ry="2" fill="#f57c00"/>
  
  <!-- けづめ -->
  <ellipse cx="25" cy="54" rx="1" ry="3" fill="#f57c00"/>
  <ellipse cx="39" cy="54" rx="1" ry="3" fill="#f57c00"/>
</svg>