<svg viewBox="0 0 64 64" xmlns="http://www.w3.org/2000/svg">
  <defs>
    <radialGradient id="bodyGradient" cx="0.3" cy="0.3" r="0.8">
      <stop offset="0%" style="stop-color:#fff566;stop-opacity:1" />
      <stop offset="70%" style="stop-color:#ffeb3b;stop-opacity:1" />
      <stop offset="100%" style="stop-color:#fdd835;stop-opacity:1" />
    </radialGradient>
    <radialGradient id="headGradient" cx="0.3" cy="0.3" r="0.8">
      <stop offset="0%" style="stop-color:#fff566;stop-opacity:1" />
      <stop offset="70%" style="stop-color:#ffeb3b;stop-opacity:1" />
      <stop offset="100%" style="stop-color:#fdd835;stop-opacity:1" />
    </radialGradient>
    <radialGradient id="shadow" cx="0.5" cy="0.9" r="0.6">
      <stop offset="0%" style="stop-color:#fbc02d;stop-opacity:0.3" />
      <stop offset="100%" style="stop-color:#fbc02d;stop-opacity:0" />
    </radialGradient>
  </defs>
  
  <!-- 影 -->
  <ellipse cx="32" cy="56" rx="16" ry="5" fill="url(#shadow)" />
  
  <!-- 体 -->
  <ellipse cx="32" cy="42" rx="14" ry="16" fill="url(#bodyGradient)" stroke="#fbc02d" stroke-width="0.5"/>
  
  <!-- 頭 -->
  <circle cx="32" cy="24" r="11" fill="url(#headGradient)" stroke="#fbc02d" stroke-width="0.5"/>
  
  <!-- くちばし -->
  <polygon points="32,29 28,33 36,33" fill="#ff9800" stroke="#f57c00" stroke-width="0.5"/>
  
  <!-- 目 -->
  <circle cx="27" cy="21" r="3" fill="#1a1a1a"/>
  <circle cx="37" cy="21" r="3" fill="#1a1a1a"/>
  <circle cx="27.8" cy="19.5" r="1" fill="#ffffff"/>
  <circle cx="37.8" cy="19.5" r="1" fill="#ffffff"/>
  
  <!-- まゆ毛のような産毛 -->
  <path d="M24 16 Q28 14 32 16" stroke="#fdd835" stroke-width="1.5" fill="none" stroke-linecap="round"/>
  <path d="M32 16 Q36 14 40 16" stroke="#fdd835" stroke-width="1.5" fill="none" stroke-linecap="round"/>
  
  <!-- 翼（少し発達） -->
  <ellipse cx="20" cy="38" rx="5" ry="10" fill="#ffeb3b" stroke="#fbc02d" stroke-width="0.5"/>
  <ellipse cx="44" cy="38" rx="5" ry="10" fill="#ffeb3b" stroke="#fbc02d" stroke-width="0.5"/>
  
  <!-- 翼の羽毛パターン -->
  <ellipse cx="20" cy="35" rx="2" ry="4" fill="#fdd835" opacity="0.7"/>
  <ellipse cx="44" cy="35" rx="2" ry="4" fill="#fdd835" opacity="0.7"/>
  
  <!-- 足（少し太く） -->
  <ellipse cx="27" cy="56" rx="2.5" ry="2" fill="#ff9800"/>
  <ellipse cx="37" cy="56" rx="2.5" ry="2" fill="#ff9800"/>
  
  <!-- 爪 -->
  <ellipse cx="25" cy="57" rx="0.8" ry="1.2" fill="#f57c00"/>
  <ellipse cx="29" cy="57" rx="0.8" ry="1.2" fill="#f57c00"/>
  <ellipse cx="35" cy="57" rx="0.8" ry="1.2" fill="#f57c00"/>
  <ellipse cx="39" cy="57" rx="0.8" ry="1.2" fill="#f57c00"/>
</svg>