<svg viewBox="0 0 64 64" xmlns="http://www.w3.org/2000/svg">
  <defs>
    <radialGradient id="bodyGradient" cx="0.3" cy="0.3" r="0.8">
      <stop offset="0%" style="stop-color:#ffffff;stop-opacity:1" />
      <stop offset="50%" style="stop-color:#f8f8f8;stop-opacity:1" />
      <stop offset="100%" style="stop-color:#e8e8e8;stop-opacity:1" />
    </radialGradient>
    <radialGradient id="headGradient" cx="0.3" cy="0.3" r="0.8">
      <stop offset="0%" style="stop-color:#fff566;stop-opacity:1" />
      <stop offset="70%" style="stop-color:#ffeb3b;stop-opacity:1" />
      <stop offset="100%" style="stop-color:#fdd835;stop-opacity:1" />
    </radialGradient>
    <radialGradient id="combGradient" cx="0.3" cy="0.3" r="0.8">
      <stop offset="0%" style="stop-color:#ff5722;stop-opacity:1" />
      <stop offset="100%" style="stop-color:#d32f2f;stop-opacity:1" />
    </radialGradient>
    <radialGradient id="shadow" cx="0.5" cy="0.9" r="0.6">
      <stop offset="0%" style="stop-color:#cccccc;stop-opacity:0.3" />
      <stop offset="100%" style="stop-color:#cccccc;stop-opacity:0" />
    </radialGradient>
  </defs>
  
  <!-- 影 -->
  <ellipse cx="32" cy="58" rx="18" ry="5" fill="url(#shadow)" />
  
  <!-- 体 -->
  <ellipse cx="32" cy="40" rx="16" ry="18" fill="url(#bodyGradient)" stroke="#e0e0e0" stroke-width="0.5"/>
  
  <!-- 首 -->
  <ellipse cx="32" cy="28" rx="6" ry="8" fill="url(#headGradient)" stroke="#fbc02d" stroke-width="0.5"/>
  
  <!-- 頭 -->
  <circle cx="32" cy="20" r="9" fill="url(#headGradient)" stroke="#fbc02d" stroke-width="0.5"/>
  
  <!-- 小さなトサカ -->
  <path d="M28 12 Q30 8 32 12 Q34 8 36 12" fill="url(#combGradient)" stroke="#b71c1c" stroke-width="0.5"/>
  
  <!-- くちばし -->
  <polygon points="32,23 27,27 37,27" fill="#ff9800" stroke="#f57c00" stroke-width="0.5"/>
  
  <!-- 目 -->
  <circle cx="27" cy="18" r="2.5" fill="#1a1a1a"/>
  <circle cx="37" cy="18" r="2.5" fill="#1a1a1a"/>
  <circle cx="27.5" cy="17" r="0.8" fill="#ffffff"/>
  <circle cx="37.5" cy="17" r="0.8" fill="#ffffff"/>
  
  <!-- 翼（発達した形） -->
  <ellipse cx="18" cy="36" rx="7" ry="12" fill="#f5f5f5" stroke="#e0e0e0" stroke-width="0.5"/>
  <ellipse cx="46" cy="36" rx="7" ry="12" fill="#f5f5f5" stroke="#e0e0e0" stroke-width="0.5"/>
  
  <!-- 翼の羽根パターン -->
  <ellipse cx="18" cy="32" rx="3" ry="6" fill="#eeeeee"/>
  <ellipse cx="46" cy="32" rx="3" ry="6" fill="#eeeeee"/>
  <ellipse cx="18" cy="40" rx="3" ry="5" fill="#eeeeee"/>
  <ellipse cx="46" cy="40" rx="3" ry="5" fill="#eeeeee"/>
  
  <!-- 尻尾の羽根 -->
  <ellipse cx="32" cy="52" rx="8" ry="6" fill="#f5f5f5" stroke="#e0e0e0" stroke-width="0.5"/>
  <ellipse cx="30" cy="54" rx="3" ry="4" fill="#eeeeee"/>
  <ellipse cx="34" cy="54" rx="3" ry="4" fill="#eeeeee"/>
  
  <!-- 足（しっかりした） -->
  <ellipse cx="26" cy="56" rx="3" ry="2.5" fill="#ff9800"/>
  <ellipse cx="38" cy="56" rx="3" ry="2.5" fill="#ff9800"/>
  
  <!-- 爪 -->
  <ellipse cx="23" cy="57.5" rx="1" ry="1.5" fill="#f57c00"/>
  <ellipse cx="26" cy="58" rx="1" ry="1.5" fill="#f57c00"/>
  <ellipse cx="29" cy="57.5" rx="1" ry="1.5" fill="#f57c00"/>
  <ellipse cx="35" cy="57.5" rx="1" ry="1.5" fill="#f57c00"/>
  <ellipse cx="38" cy="58" rx="1" ry="1.5" fill="#f57c00"/>
  <ellipse cx="41" cy="57.5" rx="1" ry="1.5" fill="#f57c00"/>
</svg>